<svg width="80" height="80" viewBox="0 0 80 80" fill="none" xmlns="http://www.w3.org/2000/svg">
<circle cx="40" cy="40" r="40" fill="#38B9CE"/>
<path d="M42.0833 31.6667C42.0833 25.9167 36.9583 21.25 30.625 21.25C24.2917 21.25 19.1667 25.9167 19.1667 31.6667H23.3333L25.4167 29.5833L27.5 31.6667H35.8333M42.0833 29.875C44.1929 28.3153 46.7515 27.4819 49.375 27.5C55.7083 27.5 60.8333 32.1667 60.8333 37.9167H54.5833L52.5 35.8333L50.4167 37.9167H44.1667" stroke="#FCFCFC" stroke-width="4.16667" stroke-linecap="round" stroke-linejoin="round"/>
<path d="M27.2708 35.2292C22.7917 39.7083 22.4792 46.625 26.5417 50.7083L35.375 41.8542L36.8333 40.3958L38.3125 38.9167L42.7292 34.5C38.6667 30.4167 31.75 30.75 27.2708 35.2292Z" stroke="#FCFCFC" stroke-width="4.16667" stroke-linecap="round" stroke-linejoin="round"/>
<path d="M37.9166 47.2917C38.9583 52.5 37.5625 56.6667 35.8333 60.8334H44.1666C48.3333 49.375 43.125 35.8334 42.0833 31.6667" stroke="#FCFCFC" stroke-width="4.16667" stroke-linecap="round" stroke-linejoin="round"/>
</svg>
